<svg xmlns="http://www.w3.org/2000/svg" viewBox="0 0 1024 1024" width="1024" height="1024">
  <title>Centraid · Android Adaptive Foreground</title>

  <!--
    Android adaptive icons: total canvas 108dp, mask shows inner 72dp (~66.6%),
    safe-zone is inner 66dp (~61%). On 1024px source the safe-zone is ~625px.
    We size the mark at 480px (47%) so it sits comfortably inside any launcher
    mask (circle, squircle, teardrop) without clipping.
  -->
  <g transform="translate(272 272) scale(2)">
    <path d="M 52.82 52.82 A 95 95 0 0 1 187.18 52.82 L 161.01 78.99 A 58 58 0 0 0 78.99 78.99 Z" fill="#8B5CF6"/>
    <path d="M 52.82 187.18 A 95 95 0 0 1 52.82 52.82 L 78.99 78.99 A 58 58 0 0 0 78.99 161.01 Z" fill="#F59E0B"/>
    <path d="M 187.18 187.18 A 95 95 0 0 1 52.82 187.18 L 78.99 161.01 A 58 58 0 0 0 161.01 161.01 Z" fill="#06B6D4"/>
    <circle cx="120" cy="120" r="12" fill="#E11D48"/>
  </g>
</svg>
