<svg xmlns="http://www.w3.org/2000/svg" viewBox="0 0 1242 2436" width="1242" height="2436">
  <title>Centraid · Splash</title>

  <!-- Splash background = same bezel as the icon, for continuity from launch
       tile through cold-start. Mark sits centered, ~360px wide. -->
  <rect width="1242" height="2436" fill="#14181F"/>
  <g transform="translate(441 1098) scale(1.5)">
    <path d="M 52.82 52.82 A 95 95 0 0 1 187.18 52.82 L 161.01 78.99 A 58 58 0 0 0 78.99 78.99 Z" fill="#8B5CF6"/>
    <path d="M 52.82 187.18 A 95 95 0 0 1 52.82 52.82 L 78.99 78.99 A 58 58 0 0 0 78.99 161.01 Z" fill="#F59E0B"/>
    <path d="M 187.18 187.18 A 95 95 0 0 1 52.82 187.18 L 78.99 161.01 A 58 58 0 0 0 161.01 161.01 Z" fill="#06B6D4"/>
    <circle cx="120" cy="120" r="12" fill="#E11D48"/>
  </g>
</svg>
